<svg width="512" height="512" viewBox="0 0 32 32" xmlns="http://www.w3.org/2000/svg" shape-rendering="crispEdges" role="img" aria-labelledby="title desc">
  <title id="title">Martin retro pixel avatar favicon</title>
  <desc id="desc">A favicon-ready SVG version of Martin's retro pixel art avatar, simplified to a 32 by 32 pixel grid.</desc>
  <circle cx="16.0" cy="16.0" r="15.04" fill="#0B1020"/>
  <rect x="12" y="1" width="1" height="1" fill="#9E9E87"/>
<rect x="13" y="1" width="6" height="1" fill="#929077"/>
<rect x="19" y="1" width="1" height="1" fill="#9E9E87"/>
<rect x="9" y="2" width="1" height="1" fill="#B6B6B5"/>
<rect x="10" y="2" width="1" height="1" fill="#9E9E87"/>
<rect x="11" y="2" width="1" height="1" fill="#B3A88D"/>
<rect x="12" y="2" width="4" height="1" fill="#DBCBA9"/>
<rect x="16" y="2" width="1" height="1" fill="#B3A88D"/>
<rect x="17" y="2" width="3" height="1" fill="#DBCBA9"/>
<rect x="20" y="2" width="1" height="1" fill="#B3A88D"/>
<rect x="21" y="2" width="1" height="1" fill="#9E9E87"/>
<rect x="22" y="2" width="1" height="1" fill="#B6B6B5"/>
<rect x="8" y="3" width="1" height="1" fill="#B3A88D"/>
<rect x="9" y="3" width="1" height="1" fill="#F3D799"/>
<rect x="10" y="3" width="1" height="1" fill="#DBCBA9"/>
<rect x="11" y="3" width="1" height="1" fill="#F3D799"/>
<rect x="12" y="3" width="1" height="1" fill="#DBCBA9"/>
<rect x="13" y="3" width="1" height="1" fill="#B3A88D"/>
<rect x="14" y="3" width="1" height="1" fill="#7E774E"/>
<rect x="15" y="3" width="1" height="1" fill="#57563D"/>
<rect x="16" y="3" width="1" height="1" fill="#17252A"/>
<rect x="17" y="3" width="1" height="1" fill="#364831"/>
<rect x="18" y="3" width="1" height="1" fill="#7E774E"/>
<rect x="19" y="3" width="4" height="1" fill="#DBCBA9"/>
<rect x="23" y="3" width="1" height="1" fill="#9E9E87"/>
<rect x="6" y="4" width="1" height="1" fill="#B6B6B5"/>
<rect x="7" y="4" width="1" height="1" fill="#7E774E"/>
<rect x="8" y="4" width="1" height="1" fill="#E3BC87"/>
<rect x="9" y="4" width="1" height="1" fill="#EDE8DC"/>
<rect x="10" y="4" width="1" height="1" fill="#F9F4E2"/>
<rect x="11" y="4" width="1" height="1" fill="#EDE8DC"/>
<rect x="12" y="4" width="1" height="1" fill="#929077"/>
<rect x="13" y="4" width="2" height="1" fill="#17252A"/>
<rect x="15" y="4" width="1" height="1" fill="#364831"/>
<rect x="16" y="4" width="1" height="1" fill="#17252A"/>
<rect x="17" y="4" width="1" height="1" fill="#090917"/>
<rect x="18" y="4" width="2" height="1" fill="#17252A"/>
<rect x="20" y="4" width="1" height="1" fill="#929077"/>
<rect x="21" y="4" width="3" height="1" fill="#DBCBA9"/>
<rect x="24" y="4" width="1" height="1" fill="#B3A88D"/>
<rect x="25" y="4" width="1" height="1" fill="#B6B6B5"/>
<rect x="5" y="5" width="1" height="1" fill="#B6B6B5"/>
<rect x="6" y="5" width="2" height="1" fill="#526B3B"/>
<rect x="8" y="5" width="1" height="1" fill="#7E774E"/>
<rect x="9" y="5" width="1" height="1" fill="#F3D799"/>
<rect x="10" y="5" width="1" height="1" fill="#F9F4E2"/>
<rect x="11" y="5" width="1" height="1" fill="#9E9E87"/>
<rect x="12" y="5" width="1" height="1" fill="#17252A"/>
<rect x="13" y="5" width="3" height="1" fill="#090917"/>
<rect x="16" y="5" width="3" height="1" fill="#17252A"/>
<rect x="19" y="5" width="1" height="1" fill="#090917"/>
<rect x="20" y="5" width="1" height="1" fill="#17252A"/>
<rect x="21" y="5" width="1" height="1" fill="#E3BC87"/>
<rect x="22" y="5" width="1" height="1" fill="#EDE8DC"/>
<rect x="23" y="5" width="2" height="1" fill="#DBCBA9"/>
<rect x="25" y="5" width="1" height="1" fill="#B3A88D"/>
<rect x="26" y="5" width="1" height="1" fill="#B6B6B5"/>
<rect x="4" y="6" width="1" height="1" fill="#B6B6B5"/>
<rect x="5" y="6" width="1" height="1" fill="#526B3B"/>
<rect x="6" y="6" width="1" height="1" fill="#3C5F38"/>
<rect x="7" y="6" width="1" height="1" fill="#526B3B"/>
<rect x="8" y="6" width="1" height="1" fill="#929077"/>
<rect x="9" y="6" width="1" height="1" fill="#E79556"/>
<rect x="10" y="6" width="1" height="1" fill="#DBCBA9"/>
<rect x="11" y="6" width="1" height="1" fill="#57563D"/>
<rect x="12" y="6" width="9" height="1" fill="#090917"/>
<rect x="21" y="6" width="1" height="1" fill="#7E774E"/>
<rect x="22" y="6" width="1" height="1" fill="#F9F4E2"/>
<rect x="23" y="6" width="1" height="1" fill="#F3D799"/>
<rect x="24" y="6" width="1" height="1" fill="#DBCBA9"/>
<rect x="25" y="6" width="1" height="1" fill="#F3D799"/>
<rect x="26" y="6" width="1" height="1" fill="#B3A88D"/>
<rect x="27" y="6" width="1" height="1" fill="#B6B6B5"/>
<rect x="4" y="7" width="2" height="1" fill="#365833"/>
<rect x="6" y="7" width="1" height="1" fill="#3C5F38"/>
<rect x="7" y="7" width="1" height="1" fill="#526B3B"/>
<rect x="8" y="7" width="1" height="1" fill="#7E774E"/>
<rect x="9" y="7" width="1" height="1" fill="#E3BC87"/>
<rect x="10" y="7" width="1" height="1" fill="#929077"/>
<rect x="11" y="7" width="1" height="1" fill="#17252A"/>
<rect x="12" y="7" width="3" height="1" fill="#090917"/>
<rect x="15" y="7" width="2" height="1" fill="#17252A"/>
<rect x="17" y="7" width="4" height="1" fill="#090917"/>
<rect x="21" y="7" width="1" height="1" fill="#17252A"/>
<rect x="22" y="7" width="1" height="1" fill="#B3A88D"/>
<rect x="23" y="7" width="4" height="1" fill="#F3D799"/>
<rect x="27" y="7" width="1" height="1" fill="#E3BC87"/>
<rect x="3" y="8" width="1" height="1" fill="#57563D"/>
<rect x="4" y="8" width="3" height="1" fill="#526B3B"/>
<rect x="7" y="8" width="1" height="1" fill="#3C5F38"/>
<rect x="8" y="8" width="1" height="1" fill="#7E774E"/>
<rect x="9" y="8" width="1" height="1" fill="#929077"/>
<rect x="10" y="8" width="1" height="1" fill="#17252A"/>
<rect x="11" y="8" width="1" height="1" fill="#090917"/>
<rect x="12" y="8" width="1" height="1" fill="#C77F49"/>
<rect x="13" y="8" width="1" height="1" fill="#AC5A2F"/>
<rect x="14" y="8" width="1" height="1" fill="#364831"/>
<rect x="15" y="8" width="4" height="1" fill="#884E2B"/>
<rect x="19" y="8" width="1" height="1" fill="#17252A"/>
<rect x="20" y="8" width="2" height="1" fill="#090917"/>
<rect x="22" y="8" width="1" height="1" fill="#364831"/>
<rect x="23" y="8" width="5" height="1" fill="#F3D799"/>
<rect x="28" y="8" width="1" height="1" fill="#9E9E87"/>
<rect x="2" y="9" width="1" height="1" fill="#C2C4CF"/>
<rect x="3" y="9" width="1" height="1" fill="#194334"/>
<rect x="4" y="9" width="1" height="1" fill="#3C5F38"/>
<rect x="5" y="9" width="1" height="1" fill="#7E774E"/>
<rect x="6" y="9" width="1" height="1" fill="#364831"/>
<rect x="7" y="9" width="1" height="1" fill="#3C5F38"/>
<rect x="8" y="9" width="1" height="1" fill="#7E774E"/>
<rect x="9" y="9" width="1" height="1" fill="#C77F49"/>
<rect x="10" y="9" width="1" height="1" fill="#364831"/>
<rect x="11" y="9" width="1" height="1" fill="#884E2B"/>
<rect x="12" y="9" width="2" height="1" fill="#F3A662"/>
<rect x="14" y="9" width="2" height="1" fill="#E79556"/>
<rect x="16" y="9" width="1" height="1" fill="#E08746"/>
<rect x="17" y="9" width="1" height="1" fill="#C77F49"/>
<rect x="18" y="9" width="1" height="1" fill="#C2713D"/>
<rect x="19" y="9" width="1" height="1" fill="#AC5A2F"/>
<rect x="20" y="9" width="2" height="1" fill="#090917"/>
<rect x="22" y="9" width="1" height="1" fill="#17252A"/>
<rect x="23" y="9" width="1" height="1" fill="#E3BC87"/>
<rect x="24" y="9" width="4" height="1" fill="#F3D799"/>
<rect x="28" y="9" width="1" height="1" fill="#DBCBA9"/>
<rect x="29" y="9" width="1" height="1" fill="#C2C4CF"/>
<rect x="2" y="10" width="1" height="1" fill="#526B3B"/>
<rect x="3" y="10" width="1" height="1" fill="#365833"/>
<rect x="4" y="10" width="1" height="1" fill="#526B3B"/>
<rect x="5" y="10" width="1" height="1" fill="#3C5F38"/>
<rect x="6" y="10" width="1" height="1" fill="#365833"/>
<rect x="7" y="10" width="1" height="1" fill="#526B3B"/>
<rect x="8" y="10" width="1" height="1" fill="#929077"/>
<rect x="9" y="10" width="1" height="1" fill="#E3BC87"/>
<rect x="10" y="10" width="1" height="1" fill="#57563D"/>
<rect x="11" y="10" width="1" height="1" fill="#C2713D"/>
<rect x="12" y="10" width="1" height="1" fill="#F3A662"/>
<rect x="13" y="10" width="1" height="1" fill="#F3D799"/>
<rect x="14" y="10" width="4" height="1" fill="#F3A662"/>
<rect x="18" y="10" width="1" height="1" fill="#E79556"/>
<rect x="19" y="10" width="1" height="1" fill="#C2713D"/>
<rect x="20" y="10" width="1" height="1" fill="#364831"/>
<rect x="21" y="10" width="2" height="1" fill="#090917"/>
<rect x="23" y="10" width="1" height="1" fill="#DBCBA9"/>
<rect x="24" y="10" width="4" height="1" fill="#F3D799"/>
<rect x="28" y="10" width="1" height="1" fill="#F9F4E2"/>
<rect x="29" y="10" width="1" height="1" fill="#B3A88D"/>
<rect x="2" y="11" width="1" height="1" fill="#365833"/>
<rect x="3" y="11" width="1" height="1" fill="#244E35"/>
<rect x="4" y="11" width="1" height="1" fill="#929077"/>
<rect x="5" y="11" width="1" height="1" fill="#365833"/>
<rect x="6" y="11" width="2" height="1" fill="#3C5F38"/>
<rect x="8" y="11" width="1" height="1" fill="#526B3B"/>
<rect x="9" y="11" width="2" height="1" fill="#7E774E"/>
<rect x="11" y="11" width="1" height="1" fill="#C77F49"/>
<rect x="12" y="11" width="1" height="1" fill="#B3A88D"/>
<rect x="13" y="11" width="1" height="1" fill="#E3BC87"/>
<rect x="14" y="11" width="2" height="1" fill="#F3A662"/>
<rect x="16" y="11" width="1" height="1" fill="#C77F49"/>
<rect x="17" y="11" width="1" height="1" fill="#364831"/>
<rect x="18" y="11" width="1" height="1" fill="#57563D"/>
<rect x="19" y="11" width="1" height="1" fill="#AC5A2F"/>
<rect x="20" y="11" width="1" height="1" fill="#884E2B"/>
<rect x="21" y="11" width="1" height="1" fill="#090917"/>
<rect x="22" y="11" width="1" height="1" fill="#364831"/>
<rect x="23" y="11" width="1" height="1" fill="#B3A88D"/>
<rect x="24" y="11" width="1" height="1" fill="#E3BC87"/>
<rect x="25" y="11" width="1" height="1" fill="#EDE8DC"/>
<rect x="26" y="11" width="1" height="1" fill="#F9F4E2"/>
<rect x="27" y="11" width="1" height="1" fill="#EDE8DC"/>
<rect x="28" y="11" width="1" height="1" fill="#FEFEFC"/>
<rect x="29" y="11" width="1" height="1" fill="#C2C4CF"/>
<rect x="1" y="12" width="1" height="1" fill="#9E9E87"/>
<rect x="2" y="12" width="1" height="1" fill="#526B3B"/>
<rect x="3" y="12" width="1" height="1" fill="#244E35"/>
<rect x="4" y="12" width="1" height="1" fill="#526B3B"/>
<rect x="5" y="12" width="1" height="1" fill="#365833"/>
<rect x="6" y="12" width="1" height="1" fill="#526B3B"/>
<rect x="7" y="12" width="2" height="1" fill="#3C5F38"/>
<rect x="9" y="12" width="1" height="1" fill="#526B3B"/>
<rect x="10" y="12" width="1" height="1" fill="#57563D"/>
<rect x="11" y="12" width="2" height="1" fill="#7E774E"/>
<rect x="13" y="12" width="1" height="1" fill="#884E2B"/>
<rect x="14" y="12" width="1" height="1" fill="#E08746"/>
<rect x="15" y="12" width="1" height="1" fill="#E79556"/>
<rect x="16" y="12" width="2" height="1" fill="#AC5A2F"/>
<rect x="18" y="12" width="1" height="1" fill="#C2713D"/>
<rect x="19" y="12" width="2" height="1" fill="#AC5A2F"/>
<rect x="21" y="12" width="1" height="1" fill="#090917"/>
<rect x="22" y="12" width="1" height="1" fill="#17252A"/>
<rect x="23" y="12" width="1" height="1" fill="#7E774E"/>
<rect x="24" y="12" width="1" height="1" fill="#929077"/>
<rect x="25" y="12" width="2" height="1" fill="#E3BC87"/>
<rect x="27" y="12" width="1" height="1" fill="#F9F4E2"/>
<rect x="28" y="12" width="1" height="1" fill="#FEFEFC"/>
<rect x="29" y="12" width="1" height="1" fill="#EDE8DC"/>
<rect x="30" y="12" width="1" height="1" fill="#B6B6B5"/>
<rect x="1" y="13" width="1" height="1" fill="#929077"/>
<rect x="2" y="13" width="1" height="1" fill="#C77F49"/>
<rect x="3" y="13" width="1" height="1" fill="#7E774E"/>
<rect x="4" y="13" width="1" height="1" fill="#526B3B"/>
<rect x="5" y="13" width="1" height="1" fill="#7E774E"/>
<rect x="6" y="13" width="1" height="1" fill="#244E35"/>
<rect x="7" y="13" width="1" height="1" fill="#526B3B"/>
<rect x="8" y="13" width="2" height="1" fill="#3C5F38"/>
<rect x="10" y="13" width="1" height="1" fill="#364831"/>
<rect x="11" y="13" width="1" height="1" fill="#E79556"/>
<rect x="12" y="13" width="1" height="1" fill="#929077"/>
<rect x="13" y="13" width="1" height="1" fill="#364831"/>
<rect x="14" y="13" width="1" height="1" fill="#E08746"/>
<rect x="15" y="13" width="1" height="1" fill="#F3A662"/>
<rect x="16" y="13" width="1" height="1" fill="#C2713D"/>
<rect x="17" y="13" width="1" height="1" fill="#B3A88D"/>
<rect x="18" y="13" width="1" height="1" fill="#884E2B"/>
<rect x="19" y="13" width="1" height="1" fill="#E08746"/>
<rect x="20" y="13" width="1" height="1" fill="#C77F49"/>
<rect x="21" y="13" width="1" height="1" fill="#17252A"/>
<rect x="22" y="13" width="2" height="1" fill="#57563D"/>
<rect x="24" y="13" width="1" height="1" fill="#9E9E87"/>
<rect x="25" y="13" width="1" height="1" fill="#7E774E"/>
<rect x="26" y="13" width="1" height="1" fill="#C77F49"/>
<rect x="27" y="13" width="1" height="1" fill="#EDE8DC"/>
<rect x="28" y="13" width="1" height="1" fill="#F9F4E2"/>
<rect x="29" y="13" width="1" height="1" fill="#EDE8DC"/>
<rect x="30" y="13" width="1" height="1" fill="#9E9E87"/>
<rect x="1" y="14" width="1" height="1" fill="#929077"/>
<rect x="2" y="14" width="1" height="1" fill="#EDE8DC"/>
<rect x="3" y="14" width="1" height="1" fill="#B3A88D"/>
<rect x="4" y="14" width="1" height="1" fill="#7E774E"/>
<rect x="5" y="14" width="1" height="1" fill="#929077"/>
<rect x="6" y="14" width="1" height="1" fill="#204A35"/>
<rect x="7" y="14" width="1" height="1" fill="#3C5F38"/>
<rect x="8" y="14" width="1" height="1" fill="#57563D"/>
<rect x="9" y="14" width="1" height="1" fill="#3C5F38"/>
<rect x="10" y="14" width="1" height="1" fill="#7E774E"/>
<rect x="11" y="14" width="1" height="1" fill="#E3BC87"/>
<rect x="12" y="14" width="2" height="1" fill="#E79556"/>
<rect x="14" y="14" width="6" height="1" fill="#F3A662"/>
<rect x="20" y="14" width="1" height="1" fill="#C77F49"/>
<rect x="21" y="14" width="1" height="1" fill="#884E2B"/>
<rect x="22" y="14" width="1" height="1" fill="#AC5A2F"/>
<rect x="23" y="14" width="1" height="1" fill="#884E2B"/>
<rect x="24" y="14" width="1" height="1" fill="#526B3B"/>
<rect x="25" y="14" width="2" height="1" fill="#929077"/>
<rect x="27" y="14" width="1" height="1" fill="#C77F49"/>
<rect x="28" y="14" width="1" height="1" fill="#E79556"/>
<rect x="29" y="14" width="1" height="1" fill="#F3D799"/>
<rect x="30" y="14" width="1" height="1" fill="#7E774E"/>
<rect x="1" y="15" width="1" height="1" fill="#7E774E"/>
<rect x="2" y="15" width="1" height="1" fill="#E3BC87"/>
<rect x="3" y="15" width="1" height="1" fill="#B3A88D"/>
<rect x="4" y="15" width="1" height="1" fill="#E3BC87"/>
<rect x="5" y="15" width="1" height="1" fill="#7E774E"/>
<rect x="6" y="15" width="1" height="1" fill="#244E35"/>
<rect x="7" y="15" width="1" height="1" fill="#365833"/>
<rect x="8" y="15" width="1" height="1" fill="#57563D"/>
<rect x="9" y="15" width="1" height="1" fill="#364831"/>
<rect x="10" y="15" width="1" height="1" fill="#AC5A2F"/>
<rect x="11" y="15" width="1" height="1" fill="#E3BC87"/>
<rect x="12" y="15" width="1" height="1" fill="#F3D799"/>
<rect x="13" y="15" width="1" height="1" fill="#F3A662"/>
<rect x="14" y="15" width="1" height="1" fill="#E3BC87"/>
<rect x="15" y="15" width="1" height="1" fill="#F3A662"/>
<rect x="16" y="15" width="1" height="1" fill="#E08746"/>
<rect x="17" y="15" width="2" height="1" fill="#F3A662"/>
<rect x="19" y="15" width="1" height="1" fill="#E79556"/>
<rect x="20" y="15" width="1" height="1" fill="#C2713D"/>
<rect x="21" y="15" width="2" height="1" fill="#AC5A2F"/>
<rect x="23" y="15" width="1" height="1" fill="#884E2B"/>
<rect x="24" y="15" width="1" height="1" fill="#365833"/>
<rect x="25" y="15" width="1" height="1" fill="#526B3B"/>
<rect x="26" y="15" width="1" height="1" fill="#7E774E"/>
<rect x="27" y="15" width="1" height="1" fill="#526B3B"/>
<rect x="28" y="15" width="1" height="1" fill="#929077"/>
<rect x="29" y="15" width="1" height="1" fill="#E3BC87"/>
<rect x="30" y="15" width="1" height="1" fill="#57563D"/>
<rect x="1" y="16" width="1" height="1" fill="#57563D"/>
<rect x="2" y="16" width="1" height="1" fill="#929077"/>
<rect x="3" y="16" width="1" height="1" fill="#7E774E"/>
<rect x="4" y="16" width="1" height="1" fill="#F3D799"/>
<rect x="5" y="16" width="1" height="1" fill="#7E774E"/>
<rect x="6" y="16" width="1" height="1" fill="#365833"/>
<rect x="7" y="16" width="1" height="1" fill="#3C5F38"/>
<rect x="8" y="16" width="2" height="1" fill="#365833"/>
<rect x="10" y="16" width="1" height="1" fill="#AC5A2F"/>
<rect x="11" y="16" width="2" height="1" fill="#F3A662"/>
<rect x="13" y="16" width="1" height="1" fill="#E08746"/>
<rect x="14" y="16" width="2" height="1" fill="#884E2B"/>
<rect x="16" y="16" width="1" height="1" fill="#AC5A2F"/>
<rect x="17" y="16" width="2" height="1" fill="#E79556"/>
<rect x="19" y="16" width="1" height="1" fill="#E08746"/>
<rect x="20" y="16" width="1" height="1" fill="#C2713D"/>
<rect x="21" y="16" width="1" height="1" fill="#AC5A2F"/>
<rect x="22" y="16" width="1" height="1" fill="#C2713D"/>
<rect x="23" y="16" width="1" height="1" fill="#364831"/>
<rect x="24" y="16" width="1" height="1" fill="#3C5F38"/>
<rect x="25" y="16" width="2" height="1" fill="#929077"/>
<rect x="27" y="16" width="1" height="1" fill="#7E774E"/>
<rect x="28" y="16" width="1" height="1" fill="#929077"/>
<rect x="29" y="16" width="1" height="1" fill="#C77F49"/>
<rect x="30" y="16" width="1" height="1" fill="#57563D"/>
<rect x="1" y="17" width="1" height="1" fill="#364831"/>
<rect x="2" y="17" width="1" height="1" fill="#365833"/>
<rect x="3" y="17" width="2" height="1" fill="#7E774E"/>
<rect x="5" y="17" width="3" height="1" fill="#365833"/>
<rect x="8" y="17" width="1" height="1" fill="#3C5F38"/>
<rect x="9" y="17" width="1" height="1" fill="#365833"/>
<rect x="10" y="17" width="1" height="1" fill="#57563D"/>
<rect x="11" y="17" width="2" height="1" fill="#E79556"/>
<rect x="13" y="17" width="1" height="1" fill="#C77F49"/>
<rect x="14" y="17" width="1" height="1" fill="#E08746"/>
<rect x="15" y="17" width="1" height="1" fill="#C77F49"/>
<rect x="16" y="17" width="2" height="1" fill="#C2713D"/>
<rect x="18" y="17" width="2" height="1" fill="#E08746"/>
<rect x="20" y="17" width="1" height="1" fill="#C2713D"/>
<rect x="21" y="17" width="1" height="1" fill="#AC5A2F"/>
<rect x="22" y="17" width="1" height="1" fill="#57563D"/>
<rect x="23" y="17" width="1" height="1" fill="#244E35"/>
<rect x="24" y="17" width="1" height="1" fill="#365833"/>
<rect x="25" y="17" width="3" height="1" fill="#7E774E"/>
<rect x="28" y="17" width="1" height="1" fill="#204A35"/>
<rect x="29" y="17" width="1" height="1" fill="#244E35"/>
<rect x="30" y="17" width="1" height="1" fill="#364831"/>
<rect x="1" y="18" width="1" height="1" fill="#526B3B"/>
<rect x="2" y="18" width="4" height="1" fill="#365833"/>
<rect x="6" y="18" width="1" height="1" fill="#244E35"/>
<rect x="7" y="18" width="1" height="1" fill="#194334"/>
<rect x="8" y="18" width="1" height="1" fill="#204A35"/>
<rect x="9" y="18" width="1" height="1" fill="#365833"/>
<rect x="10" y="18" width="1" height="1" fill="#244E35"/>
<rect x="11" y="18" width="1" height="1" fill="#C77F49"/>
<rect x="12" y="18" width="1" height="1" fill="#E79556"/>
<rect x="13" y="18" width="2" height="1" fill="#AC5A2F"/>
<rect x="15" y="18" width="1" height="1" fill="#B3A88D"/>
<rect x="16" y="18" width="1" height="1" fill="#AC5A2F"/>
<rect x="17" y="18" width="1" height="1" fill="#884E2B"/>
<rect x="18" y="18" width="2" height="1" fill="#E08746"/>
<rect x="20" y="18" width="1" height="1" fill="#C2713D"/>
<rect x="21" y="18" width="1" height="1" fill="#364831"/>
<rect x="22" y="18" width="1" height="1" fill="#929077"/>
<rect x="23" y="18" width="1" height="1" fill="#204A35"/>
<rect x="24" y="18" width="1" height="1" fill="#244E35"/>
<rect x="25" y="18" width="1" height="1" fill="#3C5F38"/>
<rect x="26" y="18" width="1" height="1" fill="#244E35"/>
<rect x="27" y="18" width="1" height="1" fill="#526B3B"/>
<rect x="28" y="18" width="1" height="1" fill="#204A35"/>
<rect x="29" y="18" width="1" height="1" fill="#244E35"/>
<rect x="30" y="18" width="1" height="1" fill="#57563D"/>
<rect x="1" y="19" width="1" height="1" fill="#9E9E87"/>
<rect x="2" y="19" width="2" height="1" fill="#365833"/>
<rect x="4" y="19" width="2" height="1" fill="#3C5F38"/>
<rect x="6" y="19" width="1" height="1" fill="#365833"/>
<rect x="7" y="19" width="4" height="1" fill="#194334"/>
<rect x="11" y="19" width="1" height="1" fill="#57563D"/>
<rect x="12" y="19" width="2" height="1" fill="#E79556"/>
<rect x="14" y="19" width="1" height="1" fill="#C2713D"/>
<rect x="15" y="19" width="1" height="1" fill="#AC5A2F"/>
<rect x="16" y="19" width="1" height="1" fill="#C2713D"/>
<rect x="17" y="19" width="2" height="1" fill="#E08746"/>
<rect x="19" y="19" width="1" height="1" fill="#C77F49"/>
<rect x="20" y="19" width="1" height="1" fill="#C2713D"/>
<rect x="21" y="19" width="1" height="1" fill="#57563D"/>
<rect x="22" y="19" width="1" height="1" fill="#EDE8DC"/>
<rect x="23" y="19" width="1" height="1" fill="#3C5F38"/>
<rect x="24" y="19" width="1" height="1" fill="#204A35"/>
<rect x="25" y="19" width="1" height="1" fill="#365833"/>
<rect x="26" y="19" width="2" height="1" fill="#244E35"/>
<rect x="28" y="19" width="1" height="1" fill="#194334"/>
<rect x="29" y="19" width="1" height="1" fill="#204A35"/>
<rect x="30" y="19" width="1" height="1" fill="#9E9E87"/>
<rect x="2" y="20" width="1" height="1" fill="#194334"/>
<rect x="3" y="20" width="1" height="1" fill="#244E35"/>
<rect x="4" y="20" width="2" height="1" fill="#204A35"/>
<rect x="6" y="20" width="1" height="1" fill="#194334"/>
<rect x="7" y="20" width="1" height="1" fill="#365833"/>
<rect x="8" y="20" width="3" height="1" fill="#194334"/>
<rect x="11" y="20" width="1" height="1" fill="#204A35"/>
<rect x="12" y="20" width="1" height="1" fill="#7E774E"/>
<rect x="13" y="20" width="2" height="1" fill="#F3A662"/>
<rect x="15" y="20" width="1" height="1" fill="#C77F49"/>
<rect x="16" y="20" width="1" height="1" fill="#E79556"/>
<rect x="17" y="20" width="2" height="1" fill="#E08746"/>
<rect x="19" y="20" width="1" height="1" fill="#C77F49"/>
<rect x="20" y="20" width="1" height="1" fill="#884E2B"/>
<rect x="21" y="20" width="1" height="1" fill="#B6B6B5"/>
<rect x="22" y="20" width="1" height="1" fill="#D4D7E3"/>
<rect x="23" y="20" width="2" height="1" fill="#C2C4CF"/>
<rect x="25" y="20" width="1" height="1" fill="#929077"/>
<rect x="26" y="20" width="1" height="1" fill="#194334"/>
<rect x="27" y="20" width="2" height="1" fill="#204A35"/>
<rect x="29" y="20" width="1" height="1" fill="#194334"/>
<rect x="2" y="21" width="1" height="1" fill="#57563D"/>
<rect x="3" y="21" width="2" height="1" fill="#194334"/>
<rect x="5" y="21" width="1" height="1" fill="#204A35"/>
<rect x="6" y="21" width="1" height="1" fill="#244E35"/>
<rect x="7" y="21" width="1" height="1" fill="#365833"/>
<rect x="8" y="21" width="1" height="1" fill="#3C5F38"/>
<rect x="9" y="21" width="1" height="1" fill="#526B3B"/>
<rect x="10" y="21" width="1" height="1" fill="#365833"/>
<rect x="11" y="21" width="1" height="1" fill="#204A35"/>
<rect x="12" y="21" width="1" height="1" fill="#194334"/>
<rect x="13" y="21" width="4" height="1" fill="#C2713D"/>
<rect x="17" y="21" width="1" height="1" fill="#E08746"/>
<rect x="18" y="21" width="1" height="1" fill="#C2713D"/>
<rect x="19" y="21" width="1" height="1" fill="#AC5A2F"/>
<rect x="20" y="21" width="1" height="1" fill="#929077"/>
<rect x="21" y="21" width="1" height="1" fill="#D4D7E3"/>
<rect x="22" y="21" width="1" height="1" fill="#EDE8DC"/>
<rect x="23" y="21" width="1" height="1" fill="#C2C4CF"/>
<rect x="24" y="21" width="2" height="1" fill="#FEFEFC"/>
<rect x="26" y="21" width="1" height="1" fill="#DDDDDD"/>
<rect x="27" y="21" width="1" height="1" fill="#7E774E"/>
<rect x="28" y="21" width="1" height="1" fill="#204A35"/>
<rect x="29" y="21" width="1" height="1" fill="#57563D"/>
<rect x="2" y="22" width="1" height="1" fill="#C2C4CF"/>
<rect x="3" y="22" width="1" height="1" fill="#204A35"/>
<rect x="4" y="22" width="1" height="1" fill="#365833"/>
<rect x="5" y="22" width="1" height="1" fill="#244E35"/>
<rect x="6" y="22" width="3" height="1" fill="#194334"/>
<rect x="9" y="22" width="1" height="1" fill="#204A35"/>
<rect x="10" y="22" width="1" height="1" fill="#194334"/>
<rect x="11" y="22" width="2" height="1" fill="#204A35"/>
<rect x="13" y="22" width="1" height="1" fill="#929077"/>
<rect x="14" y="22" width="1" height="1" fill="#C77F49"/>
<rect x="15" y="22" width="3" height="1" fill="#C2713D"/>
<rect x="18" y="22" width="1" height="1" fill="#AC5A2F"/>
<rect x="19" y="22" width="1" height="1" fill="#884E2B"/>
<rect x="20" y="22" width="4" height="1" fill="#D4D7E3"/>
<rect x="24" y="22" width="1" height="1" fill="#EDE8DC"/>
<rect x="25" y="22" width="2" height="1" fill="#FEFEFC"/>
<rect x="27" y="22" width="1" height="1" fill="#F9F4E2"/>
<rect x="28" y="22" width="1" height="1" fill="#7E774E"/>
<rect x="29" y="22" width="1" height="1" fill="#C2C4CF"/>
<rect x="3" y="23" width="1" height="1" fill="#57563D"/>
<rect x="4" y="23" width="1" height="1" fill="#194334"/>
<rect x="5" y="23" width="2" height="1" fill="#204A35"/>
<rect x="7" y="23" width="2" height="1" fill="#244E35"/>
<rect x="9" y="23" width="1" height="1" fill="#204A35"/>
<rect x="10" y="23" width="1" height="1" fill="#3C5F38"/>
<rect x="11" y="23" width="1" height="1" fill="#9E9E87"/>
<rect x="12" y="23" width="1" height="1" fill="#D4D7E3"/>
<rect x="13" y="23" width="1" height="1" fill="#9E9E87"/>
<rect x="14" y="23" width="1" height="1" fill="#C77F49"/>
<rect x="15" y="23" width="3" height="1" fill="#C2713D"/>
<rect x="18" y="23" width="1" height="1" fill="#AC5A2F"/>
<rect x="19" y="23" width="1" height="1" fill="#B6B6B5"/>
<rect x="20" y="23" width="1" height="1" fill="#D4D7E3"/>
<rect x="21" y="23" width="1" height="1" fill="#EDE8DC"/>
<rect x="22" y="23" width="1" height="1" fill="#C2C4CF"/>
<rect x="23" y="23" width="1" height="1" fill="#D4D7E3"/>
<rect x="24" y="23" width="1" height="1" fill="#EDE8DC"/>
<rect x="25" y="23" width="3" height="1" fill="#FEFEFC"/>
<rect x="28" y="23" width="1" height="1" fill="#B6B6B5"/>
<rect x="4" y="24" width="5" height="1" fill="#194334"/>
<rect x="9" y="24" width="1" height="1" fill="#3C5F38"/>
<rect x="10" y="24" width="1" height="1" fill="#EDE8DC"/>
<rect x="11" y="24" width="1" height="1" fill="#DDDDDD"/>
<rect x="12" y="24" width="1" height="1" fill="#EDE8DC"/>
<rect x="13" y="24" width="1" height="1" fill="#B6B6B5"/>
<rect x="14" y="24" width="1" height="1" fill="#AC5A2F"/>
<rect x="15" y="24" width="1" height="1" fill="#E08746"/>
<rect x="16" y="24" width="1" height="1" fill="#C77F49"/>
<rect x="17" y="24" width="1" height="1" fill="#AC5A2F"/>
<rect x="18" y="24" width="1" height="1" fill="#B6B6B5"/>
<rect x="19" y="24" width="2" height="1" fill="#FEFEFC"/>
<rect x="21" y="24" width="1" height="1" fill="#EDE8DC"/>
<rect x="22" y="24" width="1" height="1" fill="#C2C4CF"/>
<rect x="23" y="24" width="1" height="1" fill="#EDE8DC"/>
<rect x="24" y="24" width="1" height="1" fill="#DDDDDD"/>
<rect x="25" y="24" width="1" height="1" fill="#EDE8DC"/>
<rect x="26" y="24" width="1" height="1" fill="#D4D7E3"/>
<rect x="27" y="24" width="1" height="1" fill="#C2C4CF"/>
<rect x="4" y="25" width="1" height="1" fill="#B6B6B5"/>
<rect x="5" y="25" width="4" height="1" fill="#194334"/>
<rect x="9" y="25" width="1" height="1" fill="#DDDDDD"/>
<rect x="10" y="25" width="1" height="1" fill="#EDE8DC"/>
<rect x="11" y="25" width="1" height="1" fill="#D4D7E3"/>
<rect x="12" y="25" width="1" height="1" fill="#EDE8DC"/>
<rect x="13" y="25" width="1" height="1" fill="#B6B6B5"/>
<rect x="14" y="25" width="1" height="1" fill="#AC5A2F"/>
<rect x="15" y="25" width="1" height="1" fill="#E79556"/>
<rect x="16" y="25" width="1" height="1" fill="#C77F49"/>
<rect x="17" y="25" width="1" height="1" fill="#B3A88D"/>
<rect x="18" y="25" width="1" height="1" fill="#C2C4CF"/>
<rect x="19" y="25" width="2" height="1" fill="#FEFEFC"/>
<rect x="21" y="25" width="1" height="1" fill="#C2C4CF"/>
<rect x="22" y="25" width="1" height="1" fill="#D4D7E3"/>
<rect x="23" y="25" width="1" height="1" fill="#EDE8DC"/>
<rect x="24" y="25" width="2" height="1" fill="#D4D7E3"/>
<rect x="26" y="25" width="1" height="1" fill="#B6B6B5"/>
<rect x="27" y="25" width="1" height="1" fill="#C2C4CF"/>
<rect x="5" y="26" width="1" height="1" fill="#B6B6B5"/>
<rect x="6" y="26" width="2" height="1" fill="#194334"/>
<rect x="8" y="26" width="1" height="1" fill="#57563D"/>
<rect x="9" y="26" width="1" height="1" fill="#EDE8DC"/>
<rect x="10" y="26" width="1" height="1" fill="#C2C4CF"/>
<rect x="11" y="26" width="1" height="1" fill="#B6B6B5"/>
<rect x="12" y="26" width="1" height="1" fill="#DDDDDD"/>
<rect x="13" y="26" width="1" height="1" fill="#C2C4CF"/>
<rect x="14" y="26" width="1" height="1" fill="#C77F49"/>
<rect x="15" y="26" width="1" height="1" fill="#E08746"/>
<rect x="16" y="26" width="2" height="1" fill="#B6B6B5"/>
<rect x="18" y="26" width="2" height="1" fill="#9E9E87"/>
<rect x="20" y="26" width="2" height="1" fill="#C2C4CF"/>
<rect x="22" y="26" width="1" height="1" fill="#D4D7E3"/>
<rect x="23" y="26" width="1" height="1" fill="#DDDDDD"/>
<rect x="24" y="26" width="1" height="1" fill="#D4D7E3"/>
<rect x="25" y="26" width="2" height="1" fill="#C2C4CF"/>
<rect x="6" y="27" width="1" height="1" fill="#B6B6B5"/>
<rect x="7" y="27" width="1" height="1" fill="#194334"/>
<rect x="8" y="27" width="1" height="1" fill="#929077"/>
<rect x="9" y="27" width="3" height="1" fill="#D4D7E3"/>
<rect x="12" y="27" width="1" height="1" fill="#B6B6B5"/>
<rect x="13" y="27" width="1" height="1" fill="#DDDDDD"/>
<rect x="14" y="27" width="2" height="1" fill="#B3A88D"/>
<rect x="16" y="27" width="1" height="1" fill="#C2C4CF"/>
<rect x="17" y="27" width="2" height="1" fill="#B6B6B5"/>
<rect x="19" y="27" width="1" height="1" fill="#D4D7E3"/>
<rect x="20" y="27" width="1" height="1" fill="#B6B6B5"/>
<rect x="21" y="27" width="1" height="1" fill="#C2C4CF"/>
<rect x="22" y="27" width="2" height="1" fill="#D4D7E3"/>
<rect x="24" y="27" width="2" height="1" fill="#C2C4CF"/>
<rect x="8" y="28" width="1" height="1" fill="#929077"/>
<rect x="9" y="28" width="1" height="1" fill="#C2C4CF"/>
<rect x="10" y="28" width="3" height="1" fill="#D4D7E3"/>
<rect x="13" y="28" width="2" height="1" fill="#B6B6B5"/>
<rect x="15" y="28" width="1" height="1" fill="#C2C4CF"/>
<rect x="16" y="28" width="1" height="1" fill="#B6B6B5"/>
<rect x="17" y="28" width="1" height="1" fill="#C2C4CF"/>
<rect x="18" y="28" width="1" height="1" fill="#D4D7E3"/>
<rect x="19" y="28" width="1" height="1" fill="#DDDDDD"/>
<rect x="20" y="28" width="3" height="1" fill="#D4D7E3"/>
<rect x="23" y="28" width="1" height="1" fill="#B6B6B5"/>
<rect x="9" y="29" width="1" height="1" fill="#C2C4CF"/>
<rect x="10" y="29" width="2" height="1" fill="#B6B6B5"/>
<rect x="12" y="29" width="3" height="1" fill="#D4D7E3"/>
<rect x="15" y="29" width="1" height="1" fill="#C2C4CF"/>
<rect x="16" y="29" width="2" height="1" fill="#D4D7E3"/>
<rect x="18" y="29" width="1" height="1" fill="#EDE8DC"/>
<rect x="19" y="29" width="1" height="1" fill="#D4D7E3"/>
<rect x="20" y="29" width="1" height="1" fill="#C2C4CF"/>
<rect x="21" y="29" width="1" height="1" fill="#9E9E87"/>
<rect x="22" y="29" width="1" height="1" fill="#B6B6B5"/>
<rect x="12" y="30" width="1" height="1" fill="#B6B6B5"/>
<rect x="13" y="30" width="6" height="1" fill="#9E9E87"/>
<rect x="19" y="30" width="1" height="1" fill="#B6B6B5"/>
</svg>
